<svg width="100" height="100" viewBox="0 0 100 100" fill="none" xmlns="http://www.w3.org/2000/svg">
<path d="M100 49.9988C100 77.6137 77.6137 100 50.0012 100C47.6547 100 45.3475 99.8395 43.0877 99.525C42.3287 99.4209 41.574 99.2994 40.8258 99.1586C21.0287 95.4893 5.32812 80.1553 1.1168 60.5557C0.958398 59.8184 0.81543 59.0746 0.689648 58.3264C0.236328 55.6178 0 52.8354 0 49.9988C0 22.3842 22.3863 0 50.0012 0C77.6137 0 100 22.3842 100 49.9988Z" fill="#429C97"/>
<path d="M35.5557 85.4825C35.3348 85.4825 35.112 85.4153 34.9194 85.2757C34.435 84.9239 34.3272 84.2458 34.6789 83.7612L64.6823 42.4302C65.0342 41.9454 65.7121 41.838 66.1967 42.1897C66.6811 42.5417 66.7889 43.2196 66.4371 43.7042L36.434 85.0351C36.2219 85.3272 35.8911 85.4825 35.5557 85.4825Z" fill="#CCCCCC"/>
<path d="M16.5998 66.5249C16.2643 66.5249 15.9336 66.3696 15.7215 66.0774C15.3697 65.5926 15.4775 64.9145 15.9619 64.563L57.293 34.5596C57.7777 34.2079 58.4555 34.3157 58.8074 34.8001C59.1592 35.2848 59.0514 35.9629 58.567 36.3145L17.2359 66.318C17.0436 66.4577 16.8207 66.5249 16.5998 66.5249Z" fill="#CCCCCC"/>
<path d="M77.6093 46.2321C71.3009 52.5405 61.0738 52.5405 54.7654 46.2321C48.4548 39.9237 48.4548 29.6965 54.7654 23.3881V23.386C61.0738 17.0776 71.3009 17.0776 77.6093 23.386C83.9199 29.6946 83.9199 39.9237 77.6093 46.2321Z" fill="#E6E6E6"/>
<path d="M77.6093 46.232C71.3009 52.5404 61.0738 52.5404 54.7654 46.232C48.4548 39.9236 48.4548 29.6965 54.7654 23.3881L77.6093 46.232Z" fill="#B3B3B3"/>
<path d="M74.6624 40.2618L73.6107 42.2331L73.2269 42.9573L71.8802 45.4859L69.1001 50.6991L43.0878 99.5249C42.3288 99.4208 41.5741 99.2993 40.8259 99.1585L66.5064 50.9595L70.2775 43.8833L71.7456 41.1292L72.0103 40.6325L72.7497 39.2425C73.0316 38.7134 73.6866 38.5138 74.2157 38.7958C74.7448 39.0778 74.9442 39.7327 74.6624 40.2618Z" fill="#CCCCCC"/>
<path d="M61.7549 28.248L60.3649 28.9875L59.6362 29.3755L57.1141 30.7201L50.0358 34.4912L1.11685 60.5556C0.958447 59.8183 0.815479 59.0746 0.689697 58.3263L50.2961 31.8957L55.5116 29.1177L58.1616 27.7039L58.7624 27.3851L60.7358 26.3334C61.2627 26.0537 61.9198 26.2531 62.2018 26.7822C62.4834 27.3089 62.284 27.966 61.7549 28.248Z" fill="#CCCCCC"/>
<path d="M75.9066 49.5128L51.4839 25.0902C50.1076 23.7138 50.1076 21.4824 51.4839 20.106C52.8603 18.7296 55.0918 18.7296 56.4683 20.106L80.891 44.5287C82.2673 45.905 82.2673 48.1365 80.891 49.513C79.5144 50.8892 77.283 50.8892 75.9066 49.5128Z" fill="#F77759"/>
<path d="M80.89 49.5129C80.2025 50.2025 79.3003 50.5451 78.3982 50.5451C77.4982 50.5451 76.596 50.2025 75.9064 49.5129L51.4839 25.0902C50.1068 23.7133 50.1068 21.4816 51.4839 20.1068L80.89 49.5129Z" fill="#C1533E"/>
<path d="M76.8494 25.4498C74.6899 23.2904 71.8066 22.6725 70.4094 24.0698C69.0121 25.467 69.63 28.3503 71.7895 30.5098C73.9489 32.6692 76.8322 33.2871 78.2295 31.8898C79.6267 30.4926 79.0089 27.6093 76.8494 25.4498Z" fill="white"/>
<path d="M27.4801 23.0709L34.7059 22.2723L27.4801 21.4733L26.6813 14.2477L25.8825 21.4733L18.6567 22.2723L25.8825 23.0709L26.6813 30.2969L27.4801 23.0709Z" fill="white"/>
<path d="M75.8086 76.3771L85.0534 75.355L75.8086 74.3332L74.7866 65.0886L73.7645 74.3332L64.52 75.355L73.7645 76.3771L74.7866 85.6218L75.8086 76.3771Z" fill="white"/>
<path d="M36.4567 30.3745L37.8878 31.8055L39.3188 30.3745L37.8878 28.9434L36.4567 30.3745Z" fill="white"/>
<path d="M50.1209 8.98265L51.5519 10.4137L52.983 8.98265L51.5519 7.5516L50.1209 8.98265Z" fill="white"/>
<path d="M85.2495 33.3791L86.6805 34.8102L88.1116 33.3791L86.6805 31.9481L85.2495 33.3791Z" fill="white"/>
<path d="M47.7125 74.8181L49.1436 76.2491L50.5746 74.8181L49.1436 73.3871L47.7125 74.8181Z" fill="white"/>
<path d="M90.7787 62.1316L92.2097 63.5626L93.6408 62.1316L92.2097 60.7005L90.7787 62.1316Z" fill="white"/>
<path d="M7.96275 46.5206L9.3938 47.9517L10.8248 46.5206L9.3938 45.0896L7.96275 46.5206Z" fill="white"/>
<path d="M18.568 74.4918L19.9991 75.9229L21.4301 74.4918L19.9991 73.0607L18.568 74.4918Z" fill="white"/>
</svg>
