<svg width="150" height="150" viewBox="0 0 150 150" fill="none" xmlns="http://www.w3.org/2000/svg">
<path d="M150 74.9982C150 116.421 116.421 150 75.0018 150C71.482 150 68.0212 149.759 64.6315 149.287C63.4931 149.131 62.361 148.949 61.2387 148.738C31.5431 143.234 7.99219 120.233 1.6752 90.8335C1.4376 89.7275 1.22314 88.6119 1.03447 87.4896C0.354492 83.4267 0 79.253 0 74.9982C0 33.5763 33.5795 0 75.0018 0C116.421 0 150 33.5763 150 74.9982Z" fill="#429C97"/>
<path d="M53.3334 128.224C53.0021 128.224 52.6678 128.123 52.3789 127.913C51.6524 127.386 51.4906 126.369 52.0183 125.642L97.0232 63.6452C97.5512 62.918 98.5681 62.7569 99.2949 63.2845C100.021 63.8125 100.183 64.8294 99.6556 65.5562L54.6509 127.553C54.3327 127.991 53.8364 128.224 53.3334 128.224Z" fill="#CCCCCC"/>
<path d="M24.8997 99.7873C24.3964 99.7873 23.9004 99.5544 23.5822 99.1161C23.0546 98.389 23.2163 97.3718 23.9429 96.8444L85.9394 51.8394C86.6666 51.3118 87.6832 51.4735 88.2111 52.2001C88.7388 52.9272 88.577 53.9444 87.8505 54.4718L25.8539 99.4771C25.5653 99.6865 25.2311 99.7873 24.8997 99.7873Z" fill="#CCCCCC"/>
<path d="M116.414 69.348C106.952 78.8106 91.6108 78.8106 82.1482 69.348C72.6824 59.8854 72.6824 44.5447 82.1482 35.0821V35.0789C91.6108 25.6163 106.952 25.6163 116.414 35.0789C125.88 44.5418 125.88 59.8854 116.414 69.348Z" fill="#E6E6E6"/>
<path d="M116.414 69.348C106.952 78.8106 91.6108 78.8106 82.1482 69.348C72.6824 59.8854 72.6824 44.5446 82.1482 35.082L116.414 69.348Z" fill="#B3B3B3"/>
<path d="M111.994 60.3927L110.416 63.3496L109.841 64.436L107.82 68.2287L103.65 76.0486L64.6319 149.287C63.4934 149.131 62.3614 148.949 61.239 148.738L99.7597 76.4392L105.416 65.8249L107.619 61.6938L108.016 60.9487L109.125 58.8637C109.548 58.07 110.53 57.7706 111.324 58.1937C112.117 58.6167 112.417 59.599 111.994 60.3927Z" fill="#CCCCCC"/>
<path d="M92.6325 42.372L90.5475 43.4811L89.4544 44.0633L85.6713 46.0801L75.0538 51.7367L1.67539 90.8334C1.43779 89.7274 1.22334 88.6118 1.03467 87.4894L75.4443 47.8434L83.2675 43.6765L87.2425 41.5557L88.1437 41.0776L91.1038 39.5C91.8942 39.0804 92.8798 39.3796 93.3028 40.1732C93.7253 40.9634 93.4262 41.9489 92.6325 42.372Z" fill="#CCCCCC"/>
<path d="M113.86 74.2693L77.2259 37.6353C75.1614 35.5707 75.1614 32.2236 77.2259 30.159C79.2905 28.0945 82.6376 28.0945 84.7025 30.159L121.336 66.793C123.401 68.8575 123.401 72.2047 121.336 74.2696C119.272 76.3338 115.924 76.3338 113.86 74.2693Z" fill="#F77759"/>
<path d="M121.335 74.2692C120.304 75.3037 118.95 75.8176 117.597 75.8176C116.247 75.8176 114.894 75.3037 113.859 74.2692L77.2258 37.6353C75.1601 35.5698 75.1601 32.2224 77.2258 30.1602L121.335 74.2692Z" fill="#C1533E"/>
<path d="M115.274 38.1747C112.035 34.9355 107.71 34.0087 105.614 36.1046C103.518 38.2005 104.445 42.5254 107.684 45.7646C110.923 49.0038 115.248 49.9306 117.344 47.8347C119.44 45.7388 118.513 41.4139 115.274 38.1747Z" fill="white"/>
<path d="M41.2203 34.6064L52.0589 33.4085L41.2203 32.21L40.022 21.3716L38.8238 32.21L27.9851 33.4085L38.8238 34.6064L40.022 45.4454L41.2203 34.6064Z" fill="white"/>
<path d="M113.713 114.566L127.58 113.033L113.713 111.5L112.18 97.6329L110.647 111.5L96.7798 113.033L110.647 114.566L112.18 128.433L113.713 114.566Z" fill="white"/>
<path d="M54.685 45.5617L56.8315 47.7083L58.9781 45.5617L56.8315 43.4151L54.685 45.5617Z" fill="white"/>
<path d="M75.1813 13.474L77.3279 15.6206L79.4745 13.474L77.3279 11.3275L75.1813 13.474Z" fill="white"/>
<path d="M127.874 50.0688L130.021 52.2153L132.167 50.0688L130.021 47.9222L127.874 50.0688Z" fill="white"/>
<path d="M71.5688 112.227L73.7153 114.374L75.8619 112.227L73.7153 110.081L71.5688 112.227Z" fill="white"/>
<path d="M136.168 93.1974L138.314 95.344L140.461 93.1974L138.314 91.0509L136.168 93.1974Z" fill="white"/>
<path d="M11.9442 69.7809L14.0908 71.9275L16.2374 69.7809L14.0908 67.6343L11.9442 69.7809Z" fill="white"/>
<path d="M27.852 111.738L29.9985 113.884L32.1451 111.738L29.9985 109.591L27.852 111.738Z" fill="white"/>
</svg>
