<svg width="20" height="21" viewBox="0 0 20 21" fill="none" xmlns="http://www.w3.org/2000/svg">
<path d="M18.3521 2.56568H18.1953V1.83941C18.1953 1.0997 17.6079 0.5 16.8835 0.5C16.1576 0.5 15.5703 1.0997 15.5703 1.83941V2.56568H13.6153V1.83941C13.6153 1.0997 13.028 0.5 12.3034 0.5C11.5782 0.5 10.9909 1.0997 10.9909 1.83941V2.56568H9.02216V1.83941C9.02216 1.0997 8.43482 0.5 7.71031 0.5C6.98514 0.5 6.39714 1.0997 6.39714 1.83941V2.56568H4.42906V1.83941C4.42906 1.0997 3.84163 0.5 3.1165 0.5C2.39204 0.5 1.8047 1.0997 1.8047 1.83941V2.56568H1.64718C0.737665 2.56568 0 3.31814 0 4.24673L0.0131554 17.4782C0.0131554 19.1446 1.34075 20.5 2.97289 20.5H17.0272C18.6593 20.5 19.9856 19.1446 19.9856 17.4782L20 4.24673C20 3.31814 19.2624 2.56568 18.3521 2.56568ZM18.6743 17.4782C18.6743 18.4068 17.9361 19.1606 17.0272 19.1606H2.97289C2.0639 19.1606 1.32567 18.4068 1.32567 17.4782V6.12415H18.6743V17.4782Z" fill="#429C97"/>
<path d="M3.58279 12.1677H6.37449C6.74398 12.1677 7.04318 11.8621 7.04318 11.4849V8.63399C7.04318 8.25675 6.74394 7.9519 6.37449 7.9519H3.58279C3.21335 7.9519 2.91406 8.25679 2.91406 8.63399V11.4849C2.91411 11.8621 3.21335 12.1677 3.58279 12.1677Z" fill="#429C97"/>
<path d="M3.58279 17.3415H6.37449C6.74398 17.3415 7.04318 17.036 7.04318 16.6594V13.8079C7.04318 13.4313 6.74394 13.1257 6.37449 13.1257H3.58279C3.21335 13.1257 2.91406 13.4313 2.91406 13.8079V16.6594C2.91411 17.036 3.21335 17.3415 3.58279 17.3415Z" fill="#429C97"/>
<path d="M8.65054 17.3415H11.4429C11.8117 17.3415 12.1116 17.036 12.1116 16.6594V13.8079C12.1116 13.4313 11.8117 13.1257 11.4429 13.1257H8.65054C8.28109 13.1257 7.98242 13.4313 7.98242 13.8079V16.6594C7.98247 17.036 8.28109 17.3415 8.65054 17.3415Z" fill="#429C97"/>
<path d="M13.7009 12.1677H16.4926C16.8628 12.1677 17.1613 11.8621 17.1613 11.4849V8.63399C17.1613 8.25675 16.8627 7.9519 16.4926 7.9519H13.7009C13.3314 7.9519 13.0322 8.25679 13.0322 8.63399V11.4849C13.0322 11.8621 13.3314 12.1677 13.7009 12.1677ZM13.8479 8.87315C13.8479 8.82426 13.8867 8.78334 13.9352 8.78334H16.2583C16.3068 8.78334 16.3462 8.82426 16.3462 8.87315V11.2457C16.3462 11.2953 16.3068 11.3348 16.2583 11.3348H13.9352C13.8866 11.3348 13.8479 11.2953 13.8479 11.2457V8.87315Z" fill="#429C97"/>
<path d="M13.7009 17.3415H16.4926C16.8628 17.3415 17.1613 17.036 17.1613 16.6594V13.8079C17.1613 13.4313 16.8627 13.1257 16.4926 13.1257H13.7009C13.3314 13.1257 13.0322 13.4313 13.0322 13.8079V16.6594C13.0322 17.036 13.3314 17.3415 13.7009 17.3415Z" fill="#429C97"/>
<path d="M8.63353 12.1677H11.4252C11.794 12.1677 12.094 11.8621 12.094 11.4849V8.63399C12.094 8.25675 11.7941 7.9519 11.4252 7.9519H8.63353C8.26338 7.9519 7.96484 8.25679 7.96484 8.63399V11.4849C7.96484 11.8621 8.26338 12.1677 8.63353 12.1677Z" fill="#429C97"/>
</svg>
