<svg width="16" height="21" viewBox="0 0 16 21" fill="none" xmlns="http://www.w3.org/2000/svg">
<path d="M3.9629 13.3674C3.9629 13.0352 3.73643 12.8372 3.33684 12.8372C3.17368 12.8372 3.06317 12.8535 3.00537 12.8692V13.9349C3.07381 13.9506 3.15794 13.9558 3.27391 13.9558C3.69982 13.9558 3.9629 13.7368 3.9629 13.3674Z" fill="#429C97"/>
<path d="M6.43622 12.8484C6.25728 12.8484 6.14164 12.8641 6.07324 12.8804V15.2406C6.14168 15.2569 6.25218 15.2569 6.35209 15.2569C7.07801 15.2621 7.55146 14.8555 7.55146 13.9938C7.55659 13.2445 7.12517 12.8484 6.43622 12.8484Z" fill="#429C97"/>
<path d="M11.0322 0.5H3.13883C1.98569 0.5 1.04716 1.45578 1.04716 2.62864V10.5H0.842865C0.377451 10.5 0 10.8837 0 11.3578V16.5598C0 17.0338 0.37741 17.4175 0.842865 17.4175H1.04716V18.3714C1.04716 19.5455 1.98569 20.5 3.13883 20.5H13.9089C15.0613 20.5 16 19.5455 16 18.3714V5.53792L11.0322 0.5ZM2.21118 12.2966C2.4582 12.2541 2.80541 12.2221 3.29458 12.2221C3.78894 12.2221 4.14128 12.3181 4.37802 12.511C4.60417 12.6927 4.75678 12.9928 4.75678 13.3459C4.75678 13.6989 4.64114 13.999 4.43073 14.2023C4.15705 14.4645 3.75233 14.5822 3.27889 14.5822C3.17352 14.5822 3.07908 14.5769 3.00522 14.5664V15.8564H2.21118V12.2966ZM13.9089 19.1964H3.13883C2.69233 19.1964 2.32874 18.8264 2.32874 18.3714V17.4175H12.3687C12.8342 17.4175 13.2116 17.0338 13.2116 16.5598V11.3578C13.2116 10.8837 12.8342 10.5 12.3687 10.5H2.32874V2.62864C2.32874 2.17491 2.69237 1.80489 3.13883 1.80489L10.5529 1.79701V4.58596C10.5529 5.40058 11.2024 6.06217 12.0035 6.06217L14.6881 6.05433L14.7183 18.3713C14.7183 18.8264 14.3554 19.1964 13.9089 19.1964ZM5.26878 15.84V12.2966C5.56328 12.2489 5.94713 12.2221 6.35222 12.2221C7.02543 12.2221 7.46199 12.345 7.80406 12.6071C8.17218 12.8856 8.40342 13.3295 8.40342 13.9669C8.40342 14.6573 8.1564 15.1339 7.81429 15.4281C7.44104 15.7438 6.87287 15.8936 6.17874 15.8936C5.76305 15.8936 5.46855 15.8668 5.26878 15.84ZM11.0091 13.7421V14.4056H9.73611V15.8564H8.93148V12.2489H11.0984V12.9176H9.73611V13.7421H11.0091Z" fill="#429C97"/>
</svg>
