<svg width="115" height="240" viewBox="0 0 115 240" fill="none" xmlns="http://www.w3.org/2000/svg">
<circle cx="7.5" cy="7.5" r="2.5" fill="#429C97" fill-opacity="0.24"/>
<circle cx="27.5" cy="7.5" r="2.5" fill="#429C97" fill-opacity="0.24"/>
<circle cx="47.5" cy="7.5" r="2.5" fill="#429C97" fill-opacity="0.24"/>
<circle cx="67.5" cy="7.5" r="2.5" fill="#429C97" fill-opacity="0.24"/>
<circle cx="87.5" cy="7.5" r="2.5" fill="#429C97" fill-opacity="0.24"/>
<circle cx="107.5" cy="7.5" r="2.5" fill="#429C97" fill-opacity="0.24"/>
<circle cx="7.5" cy="22.5" r="2.5" fill="#429C97" fill-opacity="0.24"/>
<circle cx="27.5" cy="22.5" r="2.5" fill="#429C97" fill-opacity="0.24"/>
<circle cx="47.5" cy="22.5" r="2.5" fill="#429C97" fill-opacity="0.24"/>
<circle cx="67.5" cy="22.5" r="2.5" fill="#429C97" fill-opacity="0.24"/>
<circle cx="87.5" cy="22.5" r="2.5" fill="#429C97" fill-opacity="0.24"/>
<circle cx="107.5" cy="22.5" r="2.5" fill="#429C97" fill-opacity="0.24"/>
<circle cx="7.5" cy="37.5" r="2.5" fill="#429C97" fill-opacity="0.24"/>
<circle cx="27.5" cy="37.5" r="2.5" fill="#429C97" fill-opacity="0.24"/>
<circle cx="47.5" cy="37.5" r="2.5" fill="#429C97" fill-opacity="0.24"/>
<circle cx="67.5" cy="37.5" r="2.5" fill="#429C97" fill-opacity="0.24"/>
<circle cx="87.5" cy="37.5" r="2.5" fill="#429C97" fill-opacity="0.24"/>
<circle cx="107.5" cy="37.5" r="2.5" fill="#429C97" fill-opacity="0.24"/>
<circle cx="7.5" cy="52.5" r="2.5" fill="#429C97" fill-opacity="0.24"/>
<circle cx="27.5" cy="52.5" r="2.5" fill="#429C97" fill-opacity="0.24"/>
<circle cx="47.5" cy="52.5" r="2.5" fill="#429C97" fill-opacity="0.24"/>
<circle cx="67.5" cy="52.5" r="2.5" fill="#429C97" fill-opacity="0.24"/>
<circle cx="87.5" cy="52.5" r="2.5" fill="#429C97" fill-opacity="0.24"/>
<circle cx="107.5" cy="52.5" r="2.5" fill="#429C97" fill-opacity="0.24"/>
<circle cx="7.5" cy="67.5" r="2.5" fill="#429C97" fill-opacity="0.24"/>
<circle cx="27.5" cy="67.5" r="2.5" fill="#429C97" fill-opacity="0.24"/>
<circle cx="47.5" cy="67.5" r="2.5" fill="#429C97" fill-opacity="0.24"/>
<circle cx="67.5" cy="67.5" r="2.5" fill="#429C97" fill-opacity="0.24"/>
<circle cx="87.5" cy="67.5" r="2.5" fill="#429C97" fill-opacity="0.24"/>
<circle cx="107.5" cy="67.5" r="2.5" fill="#429C97" fill-opacity="0.24"/>
<circle cx="7.5" cy="82.5" r="2.5" fill="#429C97" fill-opacity="0.24"/>
<circle cx="27.5" cy="82.5" r="2.5" fill="#429C97" fill-opacity="0.24"/>
<circle cx="47.5" cy="82.5" r="2.5" fill="#429C97" fill-opacity="0.24"/>
<circle cx="67.5" cy="82.5" r="2.5" fill="#429C97" fill-opacity="0.24"/>
<circle cx="87.5" cy="82.5" r="2.5" fill="#429C97" fill-opacity="0.24"/>
<circle cx="107.5" cy="82.5" r="2.5" fill="#429C97" fill-opacity="0.24"/>
<circle cx="7.5" cy="97.5" r="2.5" fill="#429C97" fill-opacity="0.24"/>
<circle cx="27.5" cy="97.5" r="2.5" fill="#429C97" fill-opacity="0.24"/>
<circle cx="47.5" cy="97.5" r="2.5" fill="#429C97" fill-opacity="0.24"/>
<circle cx="67.5" cy="97.5" r="2.5" fill="#429C97" fill-opacity="0.24"/>
<circle cx="87.5" cy="97.5" r="2.5" fill="#429C97" fill-opacity="0.24"/>
<circle cx="107.5" cy="97.5" r="2.5" fill="#429C97" fill-opacity="0.24"/>
<circle cx="7.5" cy="112.5" r="2.5" fill="#429C97" fill-opacity="0.24"/>
<circle cx="27.5" cy="112.5" r="2.5" fill="#429C97" fill-opacity="0.24"/>
<circle cx="47.5" cy="112.5" r="2.5" fill="#429C97" fill-opacity="0.24"/>
<circle cx="67.5" cy="112.5" r="2.5" fill="#429C97" fill-opacity="0.24"/>
<circle cx="87.5" cy="112.5" r="2.5" fill="#429C97" fill-opacity="0.24"/>
<circle cx="107.5" cy="112.5" r="2.5" fill="#429C97" fill-opacity="0.24"/>
<circle cx="7.5" cy="127.5" r="2.5" fill="#429C97" fill-opacity="0.24"/>
<circle cx="27.5" cy="127.5" r="2.5" fill="#429C97" fill-opacity="0.24"/>
<circle cx="47.5" cy="127.5" r="2.5" fill="#429C97" fill-opacity="0.24"/>
<circle cx="67.5" cy="127.5" r="2.5" fill="#429C97" fill-opacity="0.24"/>
<circle cx="87.5" cy="127.5" r="2.5" fill="#429C97" fill-opacity="0.24"/>
<circle cx="107.5" cy="127.5" r="2.5" fill="#429C97" fill-opacity="0.24"/>
<circle cx="7.5" cy="142.5" r="2.5" fill="#429C97" fill-opacity="0.24"/>
<circle cx="27.5" cy="142.5" r="2.5" fill="#429C97" fill-opacity="0.24"/>
<circle cx="47.5" cy="142.5" r="2.5" fill="#429C97" fill-opacity="0.24"/>
<circle cx="67.5" cy="142.5" r="2.5" fill="#429C97" fill-opacity="0.24"/>
<circle cx="87.5" cy="142.5" r="2.5" fill="#429C97" fill-opacity="0.24"/>
<circle cx="107.5" cy="142.5" r="2.5" fill="#429C97" fill-opacity="0.24"/>
<circle cx="7.5" cy="157.5" r="2.5" fill="#429C97" fill-opacity="0.24"/>
<circle cx="27.5" cy="157.5" r="2.5" fill="#429C97" fill-opacity="0.24"/>
<circle cx="47.5" cy="157.5" r="2.5" fill="#429C97" fill-opacity="0.24"/>
<circle cx="67.5" cy="157.5" r="2.5" fill="#429C97" fill-opacity="0.24"/>
<circle cx="87.5" cy="157.5" r="2.5" fill="#429C97" fill-opacity="0.24"/>
<circle cx="107.5" cy="157.5" r="2.5" fill="#429C97" fill-opacity="0.24"/>
<circle cx="7.5" cy="172.5" r="2.5" fill="#429C97" fill-opacity="0.24"/>
<circle cx="27.5" cy="172.5" r="2.5" fill="#429C97" fill-opacity="0.24"/>
<circle cx="47.5" cy="172.5" r="2.5" fill="#429C97" fill-opacity="0.24"/>
<circle cx="67.5" cy="172.5" r="2.5" fill="#429C97" fill-opacity="0.24"/>
<circle cx="87.5" cy="172.5" r="2.5" fill="#429C97" fill-opacity="0.24"/>
<circle cx="107.5" cy="172.5" r="2.5" fill="#429C97" fill-opacity="0.24"/>
<circle cx="7.5" cy="187.5" r="2.5" fill="#429C97" fill-opacity="0.24"/>
<circle cx="27.5" cy="187.5" r="2.5" fill="#429C97" fill-opacity="0.24"/>
<circle cx="47.5" cy="187.5" r="2.5" fill="#429C97" fill-opacity="0.24"/>
<circle cx="67.5" cy="187.5" r="2.5" fill="#429C97" fill-opacity="0.24"/>
<circle cx="87.5" cy="187.5" r="2.5" fill="#429C97" fill-opacity="0.24"/>
<circle cx="107.5" cy="187.5" r="2.5" fill="#429C97" fill-opacity="0.24"/>
<circle cx="7.5" cy="202.5" r="2.5" fill="#429C97" fill-opacity="0.24"/>
<circle cx="27.5" cy="202.5" r="2.5" fill="#429C97" fill-opacity="0.24"/>
<circle cx="47.5" cy="202.5" r="2.5" fill="#429C97" fill-opacity="0.24"/>
<circle cx="67.5" cy="202.5" r="2.5" fill="#429C97" fill-opacity="0.24"/>
<circle cx="87.5" cy="202.5" r="2.5" fill="#429C97" fill-opacity="0.24"/>
<circle cx="107.5" cy="202.5" r="2.5" fill="#429C97" fill-opacity="0.24"/>
<circle cx="7.5" cy="217.5" r="2.5" fill="#429C97" fill-opacity="0.24"/>
<circle cx="27.5" cy="217.5" r="2.5" fill="#429C97" fill-opacity="0.24"/>
<circle cx="47.5" cy="217.5" r="2.5" fill="#429C97" fill-opacity="0.24"/>
<circle cx="67.5" cy="217.5" r="2.5" fill="#429C97" fill-opacity="0.24"/>
<circle cx="87.5" cy="217.5" r="2.5" fill="#429C97" fill-opacity="0.24"/>
<circle cx="107.5" cy="217.5" r="2.5" fill="#429C97" fill-opacity="0.24"/>
<circle cx="7.5" cy="232.5" r="2.5" fill="#429C97" fill-opacity="0.24"/>
<circle cx="27.5" cy="232.5" r="2.5" fill="#429C97" fill-opacity="0.24"/>
<circle cx="47.5" cy="232.5" r="2.5" fill="#429C97" fill-opacity="0.24"/>
<circle cx="67.5" cy="232.5" r="2.5" fill="#429C97" fill-opacity="0.24"/>
<circle cx="87.5" cy="232.5" r="2.5" fill="#429C97" fill-opacity="0.24"/>
<circle cx="107.5" cy="232.5" r="2.5" fill="#429C97" fill-opacity="0.24"/>
</svg>
