<svg width="20" height="20" viewBox="0 0 20 20" fill="none" xmlns="http://www.w3.org/2000/svg">
    <path fill-rule="evenodd" clip-rule="evenodd"
          d="M18.089 10V10.5444L19.4794 11.7836C19.7361 12.0027 19.9066 12.3019 19.9616 12.6299C20.0166 12.9579 19.9528 13.2943 19.7811 13.5816L18.1037 16.4468C17.9747 16.6644 17.7891 16.8451 17.5657 16.9708C17.3423 17.0966 17.0889 17.1629 16.8309 17.1631C16.671 17.1643 16.512 17.1401 16.36 17.0915L14.5796 16.5041C14.2684 16.7039 13.944 16.8833 13.6085 17.0414L13.2333 18.8465C13.166 19.1763 12.9817 19.4725 12.7127 19.6833C12.4437 19.8942 12.1071 20.0062 11.7619 19.9997H8.28934C7.94407 20.0062 7.60747 19.8942 7.33847 19.6833C7.06946 19.4725 6.8852 19.1763 6.81792 18.8465L6.44271 17.0414C6.10956 16.8833 5.78759 16.7038 5.47893 16.5041L3.69117 17.0915C3.53925 17.1401 3.38022 17.1643 3.22031 17.1631C2.96228 17.1629 2.70886 17.0966 2.48546 16.9708C2.26207 16.8451 2.07655 16.6644 1.94754 16.4468L0.211271 13.5816C0.0316813 13.2915 -0.0365585 12.9489 0.0186614 12.6145C0.0738812 12.2801 0.248989 11.9756 0.51291 11.755L1.9034 10.5516V9.4556L0.51291 8.21638C0.256239 7.99728 0.0857933 7.69811 0.0307642 7.3701C-0.0242649 7.0421 0.0395469 6.70567 0.211271 6.41843L1.94754 3.55318C2.07655 3.33561 2.26207 3.15489 2.48546 3.02917C2.70886 2.90344 2.96228 2.83712 3.22031 2.83686C3.37862 2.82638 3.53762 2.84089 3.69117 2.87984L5.44215 3.49587C5.75333 3.29613 6.07775 3.11666 6.41328 2.95864L6.78849 1.15353C6.85577 0.823741 7.04004 0.527499 7.30904 0.316661C7.57804 0.105822 7.91464 -0.00617906 8.25991 0.000263196H11.703C12.0483 -0.00617906 12.3849 0.105822 12.6539 0.316661C12.9229 0.527499 13.1072 0.823741 13.1744 1.15353L13.5496 2.95864C13.8828 3.1167 14.2048 3.29617 14.5134 3.49587L16.3012 2.9085C16.4531 2.85987 16.6121 2.83567 16.772 2.83686C17.0301 2.83712 17.2835 2.90344 17.5069 3.02917C17.7303 3.15489 17.9158 3.33561 18.0448 3.55318L19.7811 6.41843C19.9632 6.7061 20.0351 7.04719 19.9839 7.38144C19.9328 7.7157 19.7619 8.02158 19.5015 8.24503L18.089 9.44844V10ZM8.85936 7.33487C9.22049 7.194 9.60722 7.12592 9.99616 7.13474C10.3851 7.12592 10.7718 7.194 11.133 7.33487C11.4941 7.47574 11.8221 7.68647 12.0972 7.95431C12.3723 8.22215 12.5888 8.54154 12.7334 8.89316C12.8781 9.24477 12.948 9.62131 12.939 9.99999C12.948 10.3787 12.8781 10.7552 12.7334 11.1068C12.5888 11.4584 12.3723 11.7778 12.0972 12.0457C11.8221 12.3135 11.4941 12.5242 11.133 12.6651C10.7718 12.806 10.3851 12.8741 9.99616 12.8652C9.60722 12.8741 9.22049 12.806 8.85936 12.6651C8.49822 12.5242 8.17019 12.3135 7.89509 12.0457C7.62 11.7778 7.40356 11.4584 7.25888 11.1068C7.1142 10.7552 7.04427 10.3787 7.05333 9.99999C7.04427 9.62131 7.1142 9.24477 7.25888 8.89316C7.40356 8.54154 7.62 8.22215 7.89509 7.95431C8.17019 7.68647 8.49822 7.47574 8.85936 7.33487Z"
          fill="#429C97"/>
</svg>
