<svg width="21" height="20" viewBox="0 0 21 20" fill="none" xmlns="http://www.w3.org/2000/svg">
<path d="M20.0209 7.04257L13.8186 6.1301L11.046 0.440169C10.9702 0.284382 10.8457 0.158269 10.6918 0.0816118C10.3058 -0.111267 9.83677 0.0494654 9.64378 0.440169L6.87117 6.1301L0.66881 7.04257C0.497812 7.0673 0.34147 7.1489 0.221771 7.27254C0.0770619 7.4231 -0.00267957 7.62566 6.87558e-05 7.8357C0.00281708 8.04575 0.0878303 8.24609 0.236428 8.39272L4.72392 12.8215L3.66373 19.0753C3.63886 19.2207 3.65477 19.3703 3.70963 19.5071C3.7645 19.6439 3.85613 19.7624 3.97413 19.8492C4.09214 19.9359 4.2318 19.9875 4.37728 19.998C4.52275 20.0085 4.66823 19.9775 4.7972 19.9086L10.3449 16.9561L15.8926 19.9086C16.044 19.9902 16.2199 20.0174 16.3885 19.9877C16.8135 19.9135 17.0993 19.5055 17.026 19.0753L15.9658 12.8215L20.4533 8.39272C20.5755 8.27156 20.6561 8.1133 20.6805 7.9402C20.7465 7.50746 20.4484 7.10686 20.0209 7.04257ZM14.0775 12.1984L14.9594 17.3987L10.3449 14.9457L5.73036 17.4012L6.61223 12.2008L2.87958 8.51636L8.03884 7.75721L10.3449 3.02673L12.6509 7.75721L17.8102 8.51636L14.0775 12.1984Z" fill="#429C97"/>
</svg>
