<?xml version="1.0" standalone="no"?>
<!DOCTYPE svg PUBLIC "-//W3C//DTD SVG 20010904//EN"
 "http://www.w3.org/TR/2001/REC-SVG-20010904/DTD/svg10.dtd">
<svg version="1.0" xmlns="http://www.w3.org/2000/svg"
 width="800.000000pt" height="800.000000pt" viewBox="0 0 800.000000 800.000000"
 preserveAspectRatio="xMidYMid meet">
<metadata>
Created by potrace 1.11, written by Peter Selinger 2001-2013
</metadata>
<g transform="translate(0.000000,800.000000) scale(0.100000,-0.100000)"
fill="#000000" stroke="none">
<path d="M485 7989 c-60 -4 -136 -7 -167 -8 l-58 -1 0 -607 0 -608 44 98 c80
177 155 252 251 252 89 0 131 -29 387 -263 78 -72 133 -113 179 -135 l66 -32
-55 -49 c-35 -32 -99 -117 -177 -235 -68 -103 -141 -206 -161 -230 -148 -172
-296 -128 -476 139 -27 41 -52 77 -54 79 -2 2 -4 -270 -3 -605 0 -442 3 -602
11 -584 89 209 172 316 286 372 65 32 70 33 197 33 127 -1 135 -2 350 -60 210
-57 225 -59 340 -59 143 -1 200 17 283 90 84 74 107 116 157 289 25 87 53 174
61 194 l16 36 21 -65 c61 -183 209 -319 381 -351 145 -26 263 36 340 180 l33
63 26 -44 c24 -42 114 -133 172 -174 l29 -20 -200 -28 c-232 -32 -341 -50
-441 -72 l-71 -15 -13 -50 c-7 -27 -16 -49 -20 -49 -4 0 -28 17 -53 39 l-44
39 -136 -34 c-270 -66 -450 -115 -456 -124 -3 -5 -48 -135 -100 -289 -52 -155
-98 -281 -101 -281 -3 0 -66 89 -139 198 -73 108 -136 201 -140 205 -4 5 -49
-8 -101 -29 -200 -79 -405 -184 -596 -307 l-93 -59 0 -1946 0 -1946 54 -51
c153 -145 542 -347 896 -466 l145 -49 3 185 c2 164 4 185 19 185 13 0 629
-156 695 -176 16 -5 18 -23 18 -193 l0 -188 373 -52 c204 -28 378 -51 385 -51
9 0 12 41 12 170 l0 170 33 0 c17 0 176 -11 352 -25 176 -14 330 -25 343 -25
l22 0 0 -185 0 -185 375 0 375 0 0 183 0 184 203 17 c111 9 258 21 327 27 69
6 140 12 158 15 l32 5 0 180 0 179 -67 -6 c-38 -3 -198 -18 -358 -33 l-290
-26 -3 -177 -2 -178 -375 0 -375 0 0 175 c0 132 -3 177 -12 180 -14 4 -691 75
-720 75 -17 0 -18 -15 -18 -180 0 -114 -4 -180 -10 -180 -11 0 -702 117 -737
125 -22 5 -23 8 -25 187 l-3 181 -357 102 -358 102 0 -183 c0 -213 10 -199
-115 -159 -108 36 -226 85 -358 151 -122 62 -275 157 -282 176 -3 7 -4 307 -3
665 l3 653 82 -68 c188 -156 379 -279 618 -396 568 -280 1210 -447 2010 -523
237 -22 994 -26 1225 -5 593 52 1093 151 1559 308 480 162 868 367 1189 629
l32 26 0 -645 0 -646 -42 -31 c-76 -55 -567 -278 -670 -304 l-28 -7 0 182 0
182 -27 -7 c-16 -3 -183 -52 -373 -108 l-345 -103 -5 -184 -5 -185 -280 -51
c-154 -28 -324 -59 -377 -69 l-98 -17 0 -179 c0 -149 2 -179 14 -179 13 0 638
92 713 105 l33 6 2 192 3 192 369 103 c202 57 371 100 375 97 3 -4 7 -94 9
-201 3 -152 6 -194 17 -194 24 0 238 78 400 145 284 118 541 258 643 350 l52
47 0 1982 0 1982 -217 108 c-177 88 -432 206 -447 206 -2 0 -54 -75 -117 -166
-132 -192 -123 -198 -112 70 l8 179 -63 28 c-122 55 -253 99 -327 111 l-76 12
-62 -62 c-34 -34 -66 -62 -69 -62 -4 0 -9 39 -10 87 l-3 87 -70 18 c-91 24
-497 107 -745 152 -107 20 -204 40 -215 45 -17 7 -14 10 20 21 22 7 65 26 95
41 67 35 103 36 180 4 46 -19 87 -27 192 -34 145 -10 179 -20 253 -77 55 -42
53 -44 91 68 14 43 29 80 34 83 5 3 32 -20 61 -50 73 -77 160 -117 324 -150
168 -34 233 -63 294 -132 39 -44 50 -51 59 -40 20 24 32 115 25 194 -3 44 -2
74 3 72 5 -2 48 -23 97 -47 264 -128 327 -95 437 224 22 66 47 125 54 133 8 7
35 16 60 18 95 11 122 -36 166 -288 32 -189 40 -221 63 -265 15 -27 16 23 17
615 l0 645 -27 -26 c-38 -35 -62 -39 -141 -22 -86 18 -149 18 -202 -1 -23 -8
-44 -15 -45 -15 -2 0 13 29 32 65 52 97 65 180 61 380 -3 160 -2 173 20 217
30 60 76 85 128 68 46 -16 97 -61 140 -124 l34 -51 0 399 0 398 -122 -4 c-149
-6 -174 -15 -308 -113 -107 -78 -128 -83 -157 -38 -15 23 -14 27 16 85 l31 61
-92 -7 c-173 -12 -294 -48 -399 -118 l-62 -41 -59 12 c-32 6 -113 39 -180 71
-111 55 -126 60 -187 60 -52 0 -79 -6 -129 -30 -66 -31 -157 -97 -206 -149
-17 -17 -35 -31 -42 -31 -27 0 -77 57 -129 145 l-55 93 -122 -4 c-68 -2 -333
-7 -590 -10 l-468 -6 0 -42 c0 -65 59 -929 64 -933 2 -2 74 50 160 117 l155
121 60 -12 c71 -14 117 -40 133 -74 14 -31 37 -8 -228 -223 -177 -142 -235
-186 -262 -198 -7 -3 11 -54 19 -54 5 0 117 81 250 181 132 99 247 183 255
186 10 4 14 -3 14 -25 0 -27 -22 -46 -254 -221 -140 -105 -257 -195 -260 -199
-3 -5 -2 -93 1 -196 6 -178 7 -188 27 -196 12 -5 98 -64 191 -133 l170 -124
-2 -39 c-4 -58 -29 -116 -66 -152 l-32 -31 -119 90 c-66 49 -121 89 -123 89
-2 0 -3 -17 -3 -38 0 -37 3 -41 101 -112 91 -67 99 -75 83 -87 -27 -20 -38
-17 -101 28 l-58 40 -3 -32 c-2 -17 6 -53 17 -80 12 -26 21 -53 21 -58 0 -12
-91 -153 -96 -148 -6 6 -65 438 -88 647 -34 301 -59 613 -96 1160 -17 250 -35
511 -40 579 -6 68 -10 135 -10 148 l0 23 -317 -2 -318 -3 -27 -460 c-43 -741
-80 -1178 -133 -1600 -34 -266 -67 -485 -74 -485 -3 0 -20 34 -37 76 l-31 77
23 74 c38 118 34 127 -29 65 -41 -41 -60 -52 -84 -52 -18 0 -34 4 -37 8 -3 5
28 34 67 65 110 86 117 94 117 132 0 19 -3 35 -6 35 -3 0 -58 -36 -120 -81
-65 -46 -121 -79 -129 -76 -27 11 -44 52 -51 124 l-6 72 158 117 c88 64 161
119 163 121 2 1 6 38 9 81 l4 79 -79 5 c-187 13 -402 168 -489 353 -32 66 -32
104 -1 55 67 -108 194 -219 315 -278 125 -60 211 -54 252 16 43 73 39 78 -207
256 -220 160 -222 161 -222 199 -1 20 4 37 9 37 6 0 107 -75 226 -166 118 -91
217 -165 218 -163 2 2 6 20 10 40 l6 36 -215 159 c-200 147 -216 160 -210 184
13 50 78 102 145 115 32 6 45 -1 160 -84 68 -50 128 -91 132 -91 4 0 8 6 8 13
0 8 14 213 30 457 17 244 30 458 30 477 l0 33 -532 -2 -532 -3 -99 -125 c-53
-69 -103 -133 -110 -144 -12 -17 -14 -17 -52 -2 -24 11 -76 54 -132 112 -129
133 -166 149 -333 149 -144 -1 -222 -19 -454 -105 -245 -90 -406 -116 -545
-86 -127 27 -190 77 -201 160 l-5 41 -110 -6z m4844 -656 c189 -262 344 -482
345 -489 0 -7 -33 -38 -74 -68 -70 -51 -76 -53 -91 -38 -20 20 -789 1062 -789
1068 0 2 60 4 133 4 l132 0 344 -477z m-162 455 c17 -14 622 -843 625 -858 2
-6 -7 -18 -18 -26 -21 -14 -32 -1 -346 433 -178 246 -328 454 -332 462 -7 10
-2 12 25 6 19 -4 40 -12 46 -17z m-1817 5 c0 -9 -828 -1015 -863 -1050 l-22
-21 -215 153 c-118 84 -216 158 -218 164 -3 10 568 735 593 753 13 10 725 10
725 1z m834 -60 c3 -38 11 -181 16 -318 39 -969 75 -1463 140 -1898 147 -982
438 -1610 881 -1907 167 -112 185 -119 584 -226 154 -41 395 -106 535 -144
140 -38 356 -96 480 -129 124 -33 248 -67 275 -75 28 -7 96 -26 153 -41 l102
-28 -2 -161 -3 -161 -840 -6 c-462 -3 -1012 -7 -1221 -8 l-381 -1 -454 -560
c-249 -308 -456 -557 -460 -553 -3 5 -196 261 -428 571 l-421 562 -1265 0
-1266 0 3 151 3 152 190 52 c105 29 345 96 535 149 190 53 541 151 780 217
465 129 533 154 687 254 122 79 288 249 382 389 240 361 397 851 495 1546 52
369 83 744 131 1605 16 289 33 524 41 593 l5 42 158 0 158 0 7 -67z m1578
-275 c133 -188 246 -347 251 -354 5 -9 -16 -29 -68 -64 l-75 -50 -299 399
c-165 219 -297 402 -294 405 4 3 59 6 124 6 l117 0 244 -342z m542 329 c16
-11 16 -19 6 -80 -19 -106 11 -151 88 -133 15 4 115 49 222 101 172 83 313
136 326 122 3 -3 -17 -39 -45 -81 -54 -83 -76 -138 -67 -163 5 -12 17 -14 56
-11 38 4 61 14 102 45 93 71 180 105 302 118 70 8 256 -2 256 -13 0 -4 -42
-29 -94 -55 -121 -62 -144 -80 -172 -141 -22 -47 -24 -64 -24 -221 -1 -347
-48 -523 -156 -575 -36 -18 -56 -21 -94 -17 -52 6 -180 60 -180 75 0 5 6 24
14 42 7 19 11 51 8 75 -4 40 -2 44 27 59 78 41 196 263 297 560 19 55 31 102
28 105 -9 9 -83 -77 -193 -219 -207 -272 -339 -358 -464 -305 -46 19 -126 19
-197 0 -94 -25 -109 -21 -161 43 -137 169 -258 399 -244 464 10 42 96 130 163
166 89 47 164 62 196 39z m-4351 -78 c86 -29 227 -122 227 -150 0 -5 -23 -40
-52 -77 -29 -37 -53 -69 -55 -71 -1 -2 -25 16 -51 41 -65 61 -104 80 -177 86
-82 6 -138 -7 -329 -79 -88 -33 -197 -69 -241 -80 -96 -23 -238 -25 -315 -5
-30 8 -56 13 -58 12 -4 -5 56 -77 82 -97 43 -34 113 -59 178 -65 87 -8 208 15
428 81 219 67 307 78 358 46 17 -11 32 -27 32 -35 0 -8 -41 -70 -91 -136 -50
-67 -92 -127 -95 -134 -2 -6 17 -29 43 -51 l47 -39 -34 -8 c-319 -69 -622 -50
-833 53 -192 93 -342 275 -421 511 -36 106 -35 114 12 85 66 -41 125 -59 212
-64 116 -7 213 13 474 97 190 60 296 88 401 104 59 9 197 -5 258 -25z m-32
-256 c27 -14 47 -28 45 -31 -3 -2 -28 1 -57 8 -94 23 -181 8 -414 -72 -241
-82 -326 -95 -400 -60 l-40 19 80 -5 c97 -5 172 13 361 88 164 66 213 79 303
79 61 1 81 -3 122 -26z m5095 -220 c-113 -220 -226 -314 -331 -273 l-29 11 44
25 c72 41 123 87 246 225 64 72 118 128 121 125 3 -2 -20 -53 -51 -113z m-434
-303 c85 -32 160 -115 93 -102 -51 9 -175 -39 -175 -68 0 -5 17 -12 38 -15
190 -33 384 -103 455 -165 60 -52 88 -118 44 -101 -68 26 -217 20 -217 -9 0
-15 77 -67 117 -81 21 -7 65 -9 107 -7 58 4 94 16 201 63 147 64 213 77 263
51 18 -9 32 -20 32 -24 0 -4 -16 -17 -34 -29 -45 -29 -108 -119 -193 -276 -38
-71 -89 -155 -113 -188 -139 -191 -330 -183 -613 28 -62 47 -67 49 -85 31 -16
-16 -2 -39 80 -128 78 -85 128 -175 128 -232 0 -21 -2 -38 -4 -38 -3 0 -26 14
-53 30 -32 20 -93 41 -173 61 -153 37 -222 73 -308 159 -99 98 -239 307 -318
473 -13 27 -24 37 -41 37 -38 0 -29 -45 41 -191 81 -168 106 -243 106 -314 0
-52 -25 -125 -48 -139 -5 -3 -32 11 -62 31 -95 64 -154 84 -289 98 -109 12
-129 17 -165 42 -59 42 -144 156 -243 331 -47 83 -90 152 -94 152 -16 0 -49
-54 -49 -79 0 -34 17 -58 101 -148 103 -109 125 -168 94 -248 -9 -25 -19 -45
-21 -45 -3 0 -44 27 -92 60 -48 33 -140 97 -204 141 -65 45 -138 99 -164 122
-45 40 -46 41 -39 86 15 103 78 197 163 244 137 75 316 69 448 -16 51 -32 69
-53 144 -167 161 -243 294 -378 362 -368 18 3 17 7 -18 53 -21 28 -63 80 -94
117 -30 36 -71 92 -90 124 -32 53 -35 65 -35 134 0 68 3 81 29 119 59 85 154
113 239 70 94 -48 157 -121 335 -389 76 -112 159 -227 187 -255 l50 -50 3 31
c7 67 -78 232 -207 399 -25 33 -101 125 -168 203 -68 79 -123 148 -123 152 0
20 72 63 115 68 111 12 210 -73 417 -358 145 -200 211 -277 276 -322 141 -97
261 -52 387 144 15 25 11 24 -49 -17 -71 -47 -116 -61 -173 -52 -58 10 -108
51 -194 160 -153 194 -200 247 -267 303 -91 75 -227 140 -344 164 -51 11 -94
20 -95 20 -2 0 -3 5 -3 10 0 22 121 88 197 108 114 30 118 31 238 27 83 -2
124 -8 167 -25z m-4767 -149 l40 -7 -39 -8 c-127 -25 -225 -125 -386 -396
-186 -314 -264 -398 -414 -445 l-41 -13 36 -1 c60 -2 141 17 205 49 94 46 181
134 339 345 79 106 170 216 202 245 119 107 240 143 384 116 100 -19 116 -31
54 -39 -63 -9 -146 -52 -198 -102 -69 -65 -121 -150 -222 -359 -51 -107 -111
-220 -133 -252 -46 -67 -120 -141 -172 -171 -137 -80 -335 -75 -580 12 -91 33
-330 145 -330 155 0 4 28 9 63 12 42 2 81 13 117 30 106 53 170 123 381 423
179 254 320 366 504 400 81 15 134 17 190 6z m44 -103 c-112 -56 -234 -177
-350 -348 -104 -154 -166 -229 -210 -254 l-34 -20 38 43 c39 43 117 159 218
325 58 96 160 213 216 247 47 29 109 48 162 48 l43 1 -83 -42z m3530 -28 c43
-22 88 -70 97 -104 3 -13 4 -38 2 -56 l-3 -33 -33 51 c-40 62 -92 106 -149
128 -24 9 -40 20 -37 25 9 16 84 9 123 -11z m-2779 -31 c81 -19 163 -66 325
-188 183 -139 235 -164 342 -165 40 -1 73 -2 73 -2 0 -1 -70 -59 -155 -130
l-155 -128 0 -58 c0 -66 -8 -74 -66 -63 -71 13 -117 71 -214 271 -119 245
-175 304 -289 304 -46 0 -155 -32 -165 -48 -2 -4 35 -7 82 -8 127 -1 209 -44
258 -136 18 -34 15 -35 -32 -3 -70 47 -162 46 -223 -3 -34 -27 -85 -101 -76
-111 2 -2 20 10 39 26 137 121 295 52 284 -123 -7 -120 -94 -194 -250 -216
-143 -20 -236 31 -300 168 -31 66 -33 75 -33 184 0 135 20 199 89 283 95 116
307 183 466 146z m2462 -1184 c373 -47 698 -102 966 -162 21 -5 22 -9 22 -139
0 -103 -3 -134 -13 -134 -7 0 -101 20 -209 45 -108 25 -204 45 -212 45 -14 0
-16 -49 -16 -464 0 -255 -3 -484 -6 -510 l-7 -47 -41 6 c-84 12 -142 28 -198
52 l-58 26 0 498 c0 281 -4 499 -9 499 -5 0 -102 14 -216 30 -114 17 -211 30
-216 30 -5 0 -9 56 -9 125 0 72 4 125 9 125 6 0 101 -11 213 -25z m-1902 -94
l0 -109 -27 -6 c-16 -3 -59 -10 -98 -16 -210 -32 -381 -62 -385 -68 -3 -4 -2
-229 3 -501 4 -271 6 -496 3 -498 -2 -3 -53 -13 -113 -23 -59 -11 -135 -28
-167 -40 -33 -11 -60 -20 -62 -20 -6 0 9 1276 15 1282 19 22 606 101 789 107
l42 1 0 -109z m-1141 -948 l1 -422 -87 -26 c-49 -14 -124 -39 -169 -55 -45
-17 -84 -30 -87 -30 -4 0 -8 185 -9 412 l-3 412 -160 -446 c-88 -246 -164
-447 -170 -449 -5 -1 -88 123 -185 275 -97 151 -181 281 -188 288 -9 9 -12
-83 -12 -428 l0 -441 -27 -12 c-49 -22 -186 -118 -245 -171 l-58 -52 0 750 0
751 57 34 c116 70 251 127 300 127 7 0 90 -115 184 -256 94 -141 173 -253 177
-249 4 4 73 171 153 372 97 242 152 369 165 376 10 6 93 37 184 68 l165 57 6
-232 c4 -127 7 -421 8 -653z m4481 726 c19 -6 65 -25 102 -41 l66 -30 -1 -217
c-2 -213 -2 -217 23 -260 32 -57 98 -93 179 -98 72 -5 114 19 142 82 19 44 38
188 39 298 0 31 3 57 8 56 4 0 68 -31 142 -67 l135 -67 3 -595 c2 -401 -1
-607 -8 -632 -22 -78 -100 -98 -223 -57 -34 11 -195 87 -357 168 -163 82 -314
155 -338 161 l-42 13 0 169 0 169 43 -34 c76 -62 214 -147 333 -204 97 -46
127 -57 183 -60 81 -5 131 19 131 64 1 16 2 65 3 111 1 49 -2 82 -8 82 -5 0
-46 -12 -90 -26 -59 -20 -102 -26 -165 -27 -124 -1 -184 25 -277 119 -60 61
-82 92 -130 191 l-58 118 2 210 c1 116 5 260 8 321 l7 111 56 -9 c32 -5 73
-13 92 -19z m-3120 -162 c0 -6 -128 -353 -160 -432 -56 -143 -258 -503 -282
-505 -5 0 -8 205 -8 455 l0 455 28 1 c15 0 106 6 202 13 221 17 220 17 220 13z
m1455 -7 c66 -5 139 -13 163 -16 l42 -6 0 -427 0 -426 -62 100 c-81 133 -171
303 -204 390 -29 77 -114 361 -114 382 0 16 16 16 175 3z m1260 -327 c0 -247
1 -260 23 -316 14 -34 45 -81 77 -115 l54 -58 -59 -105 -59 -104 -1 -178 c0
-165 -1 -178 -17 -173 -10 3 -121 33 -248 66 -126 34 -232 64 -234 66 -3 2 25
80 62 172 l67 167 0 373 c0 210 4 372 9 372 5 0 53 -9 106 -20 53 -11 103 -20
111 -20 8 0 33 29 56 65 24 35 45 65 48 65 3 0 5 -116 5 -257z m-3676 -802
c46 -66 83 -123 84 -128 0 -8 -134 -51 -165 -52 -16 -1 -18 13 -18 149 0 83 4
150 8 150 5 0 46 -54 91 -119z m-644 -176 c49 -63 91 -118 92 -122 3 -7 -318
-104 -324 -99 -2 2 49 138 118 314 5 12 12 22 16 22 5 -1 48 -52 98 -115z
m-511 -88 c59 -93 106 -170 104 -171 -1 -2 -23 -8 -48 -14 -25 -6 -75 -20
-112 -31 l-68 -20 0 212 c0 116 4 207 8 202 5 -6 57 -86 116 -178z m1743
-1442 c90 -110 184 -227 210 -259 l47 -59 -110 6 c-188 11 -519 77 -868 173
-333 92 -859 283 -906 330 -13 12 78 14 725 12 l740 -3 162 -200z m3613 177
c0 -10 -28 -27 -123 -74 -226 -113 -681 -254 -1154 -358 -294 -65 -613 -114
-613 -95 0 4 88 126 196 271 l196 264 749 0 c412 0 749 -3 749 -8z"/>
<path d="M6665 7541 c-22 -10 -85 -59 -141 -109 -116 -104 -201 -166 -250
-182 -28 -10 -34 -16 -34 -41 0 -77 97 -14 369 242 58 54 103 101 100 103 -2
3 -22 -3 -44 -13z"/>
</g>
</svg>
