<svg width="295" height="115" viewBox="0 0 295 115" fill="none" xmlns="http://www.w3.org/2000/svg">
<circle cx="7.5" cy="7.5" r="2.5" fill="#7B8685" fill-opacity="0.24"/>
<circle cx="27.5" cy="7.5" r="2.5" fill="#7B8685" fill-opacity="0.24"/>
<circle cx="47.5" cy="7.5" r="2.5" fill="#7B8685" fill-opacity="0.24"/>
<circle cx="67.5" cy="7.5" r="2.5" fill="#7B8685" fill-opacity="0.24"/>
<circle cx="87.5" cy="7.5" r="2.5" fill="#7B8685" fill-opacity="0.24"/>
<circle cx="107.5" cy="7.5" r="2.5" fill="#7B8685" fill-opacity="0.24"/>
<circle cx="127.5" cy="7.5" r="2.5" fill="#7B8685" fill-opacity="0.24"/>
<circle cx="147.5" cy="7.5" r="2.5" fill="#7B8685" fill-opacity="0.24"/>
<circle cx="167.5" cy="7.5" r="2.5" fill="#7B8685" fill-opacity="0.24"/>
<circle cx="187.5" cy="7.5" r="2.5" fill="#7B8685" fill-opacity="0.24"/>
<circle cx="207.5" cy="7.5" r="2.5" fill="#7B8685" fill-opacity="0.24"/>
<circle cx="227.5" cy="7.5" r="2.5" fill="#7B8685" fill-opacity="0.24"/>
<circle cx="247.5" cy="7.5" r="2.5" fill="#7B8685" fill-opacity="0.24"/>
<circle cx="267.5" cy="7.5" r="2.5" fill="#7B8685" fill-opacity="0.24"/>
<circle cx="287.5" cy="7.5" r="2.5" fill="#7B8685" fill-opacity="0.24"/>
<circle cx="7.5" cy="27.5" r="2.5" fill="#7B8685" fill-opacity="0.24"/>
<circle cx="27.5" cy="27.5" r="2.5" fill="#7B8685" fill-opacity="0.24"/>
<circle cx="47.5" cy="27.5" r="2.5" fill="#7B8685" fill-opacity="0.24"/>
<circle cx="67.5" cy="27.5" r="2.5" fill="#7B8685" fill-opacity="0.24"/>
<circle cx="87.5" cy="27.5" r="2.5" fill="#7B8685" fill-opacity="0.24"/>
<circle cx="107.5" cy="27.5" r="2.5" fill="#7B8685" fill-opacity="0.24"/>
<circle cx="127.5" cy="27.5" r="2.5" fill="#7B8685" fill-opacity="0.24"/>
<circle cx="147.5" cy="27.5" r="2.5" fill="#7B8685" fill-opacity="0.24"/>
<circle cx="167.5" cy="27.5" r="2.5" fill="#7B8685" fill-opacity="0.24"/>
<circle cx="187.5" cy="27.5" r="2.5" fill="#7B8685" fill-opacity="0.24"/>
<circle cx="207.5" cy="27.5" r="2.5" fill="#7B8685" fill-opacity="0.24"/>
<circle cx="227.5" cy="27.5" r="2.5" fill="#7B8685" fill-opacity="0.24"/>
<circle cx="247.5" cy="27.5" r="2.5" fill="#7B8685" fill-opacity="0.24"/>
<circle cx="267.5" cy="27.5" r="2.5" fill="#7B8685" fill-opacity="0.24"/>
<circle cx="287.5" cy="27.5" r="2.5" fill="#7B8685" fill-opacity="0.24"/>
<circle cx="7.5" cy="47.5" r="2.5" fill="#7B8685" fill-opacity="0.24"/>
<circle cx="27.5" cy="47.5" r="2.5" fill="#7B8685" fill-opacity="0.24"/>
<circle cx="47.5" cy="47.5" r="2.5" fill="#7B8685" fill-opacity="0.24"/>
<circle cx="67.5" cy="47.5" r="2.5" fill="#7B8685" fill-opacity="0.24"/>
<circle cx="87.5" cy="47.5" r="2.5" fill="#7B8685" fill-opacity="0.24"/>
<circle cx="107.5" cy="47.5" r="2.5" fill="#7B8685" fill-opacity="0.24"/>
<circle cx="127.5" cy="47.5" r="2.5" fill="#7B8685" fill-opacity="0.24"/>
<circle cx="147.5" cy="47.5" r="2.5" fill="#7B8685" fill-opacity="0.24"/>
<circle cx="167.5" cy="47.5" r="2.5" fill="#7B8685" fill-opacity="0.24"/>
<circle cx="187.5" cy="47.5" r="2.5" fill="#7B8685" fill-opacity="0.24"/>
<circle cx="207.5" cy="47.5" r="2.5" fill="#7B8685" fill-opacity="0.24"/>
<circle cx="227.5" cy="47.5" r="2.5" fill="#7B8685" fill-opacity="0.24"/>
<circle cx="247.5" cy="47.5" r="2.5" fill="#7B8685" fill-opacity="0.24"/>
<circle cx="267.5" cy="47.5" r="2.5" fill="#7B8685" fill-opacity="0.24"/>
<circle cx="287.5" cy="47.5" r="2.5" fill="#7B8685" fill-opacity="0.24"/>
<circle cx="7.5" cy="67.5" r="2.5" fill="#7B8685" fill-opacity="0.24"/>
<circle cx="27.5" cy="67.5" r="2.5" fill="#7B8685" fill-opacity="0.24"/>
<circle cx="47.5" cy="67.5" r="2.5" fill="#7B8685" fill-opacity="0.24"/>
<circle cx="67.5" cy="67.5" r="2.5" fill="#7B8685" fill-opacity="0.24"/>
<circle cx="87.5" cy="67.5" r="2.5" fill="#7B8685" fill-opacity="0.24"/>
<circle cx="107.5" cy="67.5" r="2.5" fill="#7B8685" fill-opacity="0.24"/>
<circle cx="127.5" cy="67.5" r="2.5" fill="#7B8685" fill-opacity="0.24"/>
<circle cx="147.5" cy="67.5" r="2.5" fill="#7B8685" fill-opacity="0.24"/>
<circle cx="167.5" cy="67.5" r="2.5" fill="#7B8685" fill-opacity="0.24"/>
<circle cx="187.5" cy="67.5" r="2.5" fill="#7B8685" fill-opacity="0.24"/>
<circle cx="207.5" cy="67.5" r="2.5" fill="#7B8685" fill-opacity="0.24"/>
<circle cx="227.5" cy="67.5" r="2.5" fill="#7B8685" fill-opacity="0.24"/>
<circle cx="247.5" cy="67.5" r="2.5" fill="#7B8685" fill-opacity="0.24"/>
<circle cx="267.5" cy="67.5" r="2.5" fill="#7B8685" fill-opacity="0.24"/>
<circle cx="287.5" cy="67.5" r="2.5" fill="#7B8685" fill-opacity="0.24"/>
<circle cx="7.5" cy="87.5" r="2.5" fill="#7B8685" fill-opacity="0.24"/>
<circle cx="27.5" cy="87.5" r="2.5" fill="#7B8685" fill-opacity="0.24"/>
<circle cx="47.5" cy="87.5" r="2.5" fill="#7B8685" fill-opacity="0.24"/>
<circle cx="67.5" cy="87.5" r="2.5" fill="#7B8685" fill-opacity="0.24"/>
<circle cx="87.5" cy="87.5" r="2.5" fill="#7B8685" fill-opacity="0.24"/>
<circle cx="107.5" cy="87.5" r="2.5" fill="#7B8685" fill-opacity="0.24"/>
<circle cx="127.5" cy="87.5" r="2.5" fill="#7B8685" fill-opacity="0.24"/>
<circle cx="147.5" cy="87.5" r="2.5" fill="#7B8685" fill-opacity="0.24"/>
<circle cx="167.5" cy="87.5" r="2.5" fill="#7B8685" fill-opacity="0.24"/>
<circle cx="187.5" cy="87.5" r="2.5" fill="#7B8685" fill-opacity="0.24"/>
<circle cx="207.5" cy="87.5" r="2.5" fill="#7B8685" fill-opacity="0.24"/>
<circle cx="227.5" cy="87.5" r="2.5" fill="#7B8685" fill-opacity="0.24"/>
<circle cx="247.5" cy="87.5" r="2.5" fill="#7B8685" fill-opacity="0.24"/>
<circle cx="267.5" cy="87.5" r="2.5" fill="#7B8685" fill-opacity="0.24"/>
<circle cx="287.5" cy="87.5" r="2.5" fill="#7B8685" fill-opacity="0.24"/>
<circle cx="7.5" cy="107.5" r="2.5" fill="#7B8685" fill-opacity="0.24"/>
<circle cx="27.5" cy="107.5" r="2.5" fill="#7B8685" fill-opacity="0.24"/>
<circle cx="47.5" cy="107.5" r="2.5" fill="#7B8685" fill-opacity="0.24"/>
<circle cx="67.5" cy="107.5" r="2.5" fill="#7B8685" fill-opacity="0.24"/>
<circle cx="87.5" cy="107.5" r="2.5" fill="#7B8685" fill-opacity="0.24"/>
<circle cx="107.5" cy="107.5" r="2.5" fill="#7B8685" fill-opacity="0.24"/>
<circle cx="127.5" cy="107.5" r="2.5" fill="#7B8685" fill-opacity="0.24"/>
<circle cx="147.5" cy="107.5" r="2.5" fill="#7B8685" fill-opacity="0.24"/>
<circle cx="167.5" cy="107.5" r="2.5" fill="#7B8685" fill-opacity="0.24"/>
<circle cx="187.5" cy="107.5" r="2.5" fill="#7B8685" fill-opacity="0.24"/>
<circle cx="207.5" cy="107.5" r="2.5" fill="#7B8685" fill-opacity="0.24"/>
<circle cx="227.5" cy="107.5" r="2.5" fill="#7B8685" fill-opacity="0.24"/>
<circle cx="247.5" cy="107.5" r="2.5" fill="#7B8685" fill-opacity="0.24"/>
<circle cx="267.5" cy="107.5" r="2.5" fill="#7B8685" fill-opacity="0.24"/>
<circle cx="287.5" cy="107.5" r="2.5" fill="#7B8685" fill-opacity="0.24"/>
</svg>
