<svg width="37" height="40" viewBox="0 0 37 40" fill="none" xmlns="http://www.w3.org/2000/svg">
    <path d="M29.6902 3.80004C30.1992 3.66742 30.6395 3.25711 31.0378 2.88594C31.4224 2.52746 31.7679 2.20549 32.0983 2.20549C32.0787 2.20549 31.924 2.3552 31.7014 2.57081C30.9542 3.29423 29.4409 4.75948 29.6902 3.80004Z"
          fill="#429C97"/>
    <path fill-rule="evenodd" clip-rule="evenodd"
          d="M16.635 38.1657V40L20.3604 39.9837V38.168L23.9379 37.8631V39.7207L27.7142 39.1527V37.2299L31.4442 36.18L31.4673 38.2146C31.6199 38.2774 36.0224 36.6619 37 35.4608V15.6906C35.9346 15.1203 34.7629 14.5313 33.679 14.0937L32.505 15.7977L32.5928 13.677C32.4604 13.6214 32.3396 13.5704 32.2288 13.5236C31.1619 13.0733 31.0178 13.0125 30.2725 12.9344L29.6 13.6118V12.697C28.8252 12.4474 26.6087 12.0289 25.2808 11.7782C24.751 11.6782 24.3626 11.6049 24.2638 11.5797C24.6063 11.5219 24.82 11.4025 24.9984 11.3028C25.2943 11.1374 25.4934 11.0262 26.0225 11.3399C26.3023 11.4214 26.5646 11.4273 26.8215 11.4331C27.32 11.4443 27.7975 11.455 28.3405 12.0173C28.4348 11.9235 28.5278 11.6411 28.6073 11.3997C28.6758 11.1916 28.7343 11.014 28.7749 11.014C29.3159 11.8271 30.0161 11.958 30.6815 12.0825C31.3211 12.2021 31.9285 12.3156 32.3317 13.0229C32.6085 12.8129 32.5523 12.1858 32.5184 11.8076C32.5098 11.7122 32.5027 11.6327 32.5027 11.5797C34.5681 12.6867 34.6756 12.3541 35.3922 10.1357L35.4123 10.0736C36.3178 9.60355 36.4432 10.4643 36.5818 11.4168C36.663 11.974 36.7486 12.5625 36.9977 12.9344V6.40257C36.7055 6.81665 36.4561 6.75125 36.1334 6.66666C35.8103 6.58196 35.4138 6.47801 34.8276 6.81693C35.3499 6.22566 35.5001 5.30851 35.3499 4.1283C35.3499 2.86197 36.2628 2.6222 37 4.04217V0.0196961C35.6643 -0.052866 35.5146 0.0612735 34.8152 0.594571C34.6844 0.694283 34.5344 0.808648 34.3538 0.939186C33.7668 0.850729 34.0927 0.350247 34.3538 0.0196961C33.092 0.108153 32.4195 0.196611 31.5967 0.850729C31.1309 0.850729 30.7752 0.65681 30.4328 0.470127C29.722 0.0826515 29.0685 -0.27365 27.6056 1.1999C27.3223 1.1999 27.0514 0.70417 26.8219 0.284083C26.7705 0.190024 26.7211 0.0997571 26.6742 0.0196961L20.7741 0.108154L21.0976 5.04546L22.683 3.80007C22.6836 3.80022 22.6842 3.80037 22.6848 3.80052C22.7491 3.81681 22.8213 3.82963 22.8958 3.84348C23.2259 3.90478 23.614 3.97685 23.6837 4.36804L21.2987 6.30944L21.2985 6.30776L21.2964 6.30947H21.1878L21.2964 6.72614V6.64001L23.8524 4.71724L23.8525 5.04543L21.2964 6.98683L21.3657 8.9143L21.4526 8.97493L21.449 8.91194L23.2724 10.2434C23.2724 10.2432 23.2724 10.2437 23.2724 10.2434L23.2746 10.2458C23.2099 10.9232 23.0343 11.0978 22.7754 11.3399L21.539 10.4204V10.7769L21.5441 10.8409L22.5397 11.5773C22.5397 11.5773 22.4227 11.6922 22.2983 11.6896C22.2686 11.6893 22.2384 11.6824 22.2093 11.6657L21.6245 11.253V11.575L21.8649 12.1639L21.3657 12.9298C20.8264 9.6214 20.6235 6.48864 20.4259 3.43765C20.3533 2.31757 20.2815 1.20851 20.194 0.105827H17.0487C17.0235 0.544727 16.9989 0.984637 16.9744 1.42585C16.769 5.11256 16.5585 8.89027 15.9001 12.9298L15.5534 12.1011L15.7267 11.575L15.8146 11.1606H15.7267L15.2252 11.6635C15.1936 11.6635 15.1671 11.6635 15.1447 11.6633C15.0249 11.6626 15.0181 11.6577 14.9733 11.6259C14.9559 11.6134 14.9327 11.5969 14.8948 11.575L14.9344 11.5467L15.8146 10.8348V10.4181L14.6405 11.2491C14.6402 11.249 14.6409 11.2492 14.6405 11.2491L14.636 11.2514C14.3124 11.1629 14.3124 10.7463 14.3124 10.2434L15.8955 9.06324L15.8954 9.06441L15.9001 9.06095V8.9981L15.9648 8.23225H15.9627L15.9625 8.23454C15.7638 8.26976 15.5654 8.26328 15.3669 8.22744C15.2248 8.21317 15.1003 8.16879 14.9539 8.11661C14.9028 8.09837 14.849 8.07918 14.7908 8.05999C14.7857 8.05474 14.78 8.0499 14.7738 8.0454C14.7375 8.03043 14.7011 8.01488 14.6647 7.99884C14.6588 7.99698 14.6527 7.99512 14.6466 7.99325C14.5812 7.97321 14.5112 7.95174 14.4649 7.90635L14.2194 7.70809C14.2062 7.69921 14.1928 7.69027 14.1793 7.68124C13.9721 7.54259 13.7361 7.38472 13.559 7.1405L13.4711 7.05437V7.02818C13.46 7.01451 13.449 7.00074 13.4381 6.98686H13.4064V6.94566C13.3904 6.92444 13.3748 6.90299 13.3594 6.88131C13.3226 6.8788 13.321 6.86839 13.3209 6.82526C13.2999 6.79383 13.2797 6.76196 13.2602 6.72963C13.2127 6.72592 13.2123 6.71049 13.2123 6.6463C13.1967 6.61787 13.1818 6.58911 13.1674 6.56002C13.161 6.5576 13.1537 6.55621 13.1453 6.55621V6.51375C13.129 6.47871 13.1137 6.4432 13.0993 6.40724H13.0598C13.0598 6.34508 13.0492 6.2832 13.0355 6.22253C13.0196 6.16789 13.0059 6.11229 12.9946 6.05573H12.9743V5.9341C12.9726 5.92191 12.9711 5.90968 12.9697 5.89741C12.9712 5.90209 12.9727 5.90678 12.9743 5.91148V5.90443C12.9743 5.90684 12.9742 5.90906 12.9743 5.91148C12.99 5.95856 13.0095 6.00687 13.0324 6.05573H13.0598V6.11131C13.0801 6.15063 13.1024 6.19034 13.1268 6.23032H13.1453V6.26021C13.194 6.33744 13.2497 6.41549 13.3113 6.49336H13.3209V6.50545C13.3418 6.53153 13.3633 6.55759 13.3854 6.58358C13.3867 6.58501 13.388 6.58652 13.3892 6.5881C13.4761 6.68996 13.5723 6.79078 13.6751 6.88823C13.8142 7.00669 13.9675 7.12909 14.1219 7.25232C14.1493 7.27424 14.1768 7.2962 14.2043 7.31816C14.288 7.37609 14.3729 7.43042 14.458 7.48028C14.4675 7.48377 14.4765 7.48902 14.4867 7.49693C14.5262 7.51957 14.5657 7.54123 14.6051 7.56183H14.6405C14.6587 7.57969 14.6759 7.59385 14.6925 7.60586C15.0839 7.79513 15.4599 7.87209 15.7227 7.75249C15.7244 7.74296 15.7244 7.73642 15.7244 7.73642H15.7551C15.8066 7.70873 15.8532 7.67277 15.8941 7.62783C15.8978 7.61135 15.8978 7.59181 15.8978 7.56183H15.9458C15.9515 7.55332 15.9571 7.54456 15.9625 7.53557V7.41053H16.0215C16.0324 7.38058 16.042 7.34878 16.0503 7.31505L16.0412 7.41053H16.0549V7.05902L16.0503 7.05566V7.05667L15.4888 6.6429L13.797 5.39928C13.797 5.39828 13.797 5.39727 13.797 5.39626L13.7947 5.3946C13.7947 5.35177 13.7908 5.30893 13.7872 5.26868C13.7759 5.14486 13.7669 5.04543 13.8802 5.04543L16.0503 6.72611V6.72905L16.0526 6.7308L16.1381 6.31412L13.9911 4.72189C13.9913 4.72099 13.9914 4.72009 13.9915 4.71919L13.9889 4.7172C14.0513 4.30052 14.5505 3.95135 14.9641 4.03981L16.2213 4.95697L16.2212 4.95987L16.2236 4.96166L16.5495 0.0220271H11.2363L10.1502 1.442C9.77355 1.37031 9.55438 1.11692 9.3185 0.8442C8.76551 0.204855 8.12063 -0.540729 5.13979 0.699419C2.40812 1.70271 1.40975 0.522505 1.73561 0.0196961L0 0.108154V6.22333C0.999477 3.42531 2.03601 4.44195 3.08625 5.47201C3.60963 5.98534 4.13641 6.50201 4.66371 6.55156C4.17227 6.83658 3.76877 7.47837 3.37419 8.10597C2.49583 9.50303 1.66165 10.8298 0 7.99481V14.2008C0.947713 11.3612 2.56727 11.8184 4.1814 12.2741C5.52332 12.6529 6.86149 13.0307 7.80675 11.5121C7.92128 11.2538 8.01448 10.8993 8.10505 10.5547C8.221 10.1136 8.33264 9.68881 8.47926 9.50323C8.74041 11.5098 11.5599 12.6947 12.2948 10.3319C12.4705 10.8371 12.9696 11.3376 13.4688 11.5773C13.3432 11.5963 13.1422 11.623 12.8963 11.6556C11.9931 11.7756 10.4848 11.976 9.889 12.1663L9.73648 12.6947L9.23729 12.257C8.95975 12.3285 8.66272 12.402 8.36007 12.4769C7.6471 12.6534 6.90297 12.8375 6.30918 13.0206L5.31081 15.949L3.90106 13.8516C2.64616 14.2683 1.06077 15.1203 0 15.8628V35.2838C0.670206 36.2871 3.99119 37.7956 5.48645 38.1447V36.2685L9.08476 37.2043V39.0875L12.928 39.6322V37.884L16.635 38.1657ZM4.40256 21.2354V23.398L5.57195 23.0674L4.40256 21.2354ZM7.06952 21.1493L6.39469 22.8952L8.0679 22.4156L7.06952 21.1493ZM10.3004 20.2298V21.8267L11.234 21.5637L10.3004 20.2298ZM15.5488 15.2064L13.3163 15.3577V19.9691C14.4238 18.3214 14.6998 17.5501 15.1358 16.3312C15.2548 15.9986 15.3858 15.6326 15.5488 15.2064ZM23.7923 15.3577C23.1198 15.2692 22.3618 15.2064 21.8626 15.2064C21.9242 15.4227 21.9781 15.6186 22.0281 15.8001C22.3815 17.0835 22.537 17.6484 23.7923 19.6409V15.3577ZM27.349 19.7945L26.6788 21.4775L29.1956 22.1573V20.3881L29.778 19.3173C28.9132 18.6376 28.9458 17.8037 28.9943 16.5628C29.0066 16.2483 29.0199 15.9078 29.0199 15.5369L28.523 16.2772L27.349 16.0351V19.7945ZM24.1829 28.5099L22.2092 31.1752C22.9465 31.3498 30.1038 29.7739 31.6892 28.5099H24.1829ZM12.8818 28.4238H5.48645C7.48089 29.5155 12.7293 31.0216 14.9641 31.0193L12.8818 28.4238ZM18.5416 32.4416L23.0366 26.8548L35.1835 26.7687V25.1695L25.9416 22.6577C25.8973 22.6411 25.8533 22.6241 25.8097 22.6066C25.6533 22.5439 25.5011 22.4753 25.3528 22.4011C20.2426 19.8433 19.8653 10.5883 19.5901 3.83645C19.5492 2.83422 19.5106 1.88715 19.4591 1.02532C19.4591 1.02531 19.4591 1.02532 19.4591 1.02532L17.8713 1.0253C17.7606 2.19916 17.6876 3.53122 17.6102 4.94499C17.2335 11.8214 16.7509 20.6307 11.301 22.5693L1.73555 25.2556V26.7663L14.3147 26.7663L18.5416 32.4416ZM25.0311 19.2265V14.2659L22.7732 13.9354V12.6923L22.832 12.6994C24.8069 12.9368 26.7842 13.1745 28.7819 13.6723V15.0271L26.6119 14.5243C26.609 14.5243 26.6063 14.5241 26.6038 14.5239C26.601 14.5237 26.5985 14.5235 26.5961 14.5237C26.5944 14.5237 26.5928 14.524 26.5912 14.5246C26.5691 14.5326 26.5691 14.6017 26.5691 15.0972C26.5691 15.7144 26.5691 16.9931 26.5263 19.6385C26.1127 19.6409 25.3523 19.4639 25.0311 19.2265ZM1.4953 1.85631C2.54589 2.72045 3.82711 2.29126 5.14793 1.84882C6.66289 1.34134 8.22995 0.816403 9.56089 2.20549L8.97387 2.97134C8.17425 1.92902 7.27981 2.28505 6.23838 2.69959C5.3354 3.05902 4.32191 3.46244 3.16388 3.03652C3.87734 4.34753 5.37034 3.86881 6.61845 3.46861C7.53328 3.17528 8.31654 2.92413 8.56482 3.45087L7.56645 4.80567L8.06563 5.22234C5.4865 5.80895 2.40817 5.63437 1.4953 1.85631ZM3.90111 3.36241C4.57845 3.6292 5.35917 3.31369 6.11954 3.00642C7.03771 2.63537 7.9262 2.27632 8.56713 2.96901C7.77301 2.58656 6.87625 2.92192 6.04241 3.23374C5.21158 3.54444 4.44322 3.83178 3.90111 3.36241ZM10.9729 6.40022L8.74046 4.80334L11.731 1.02296H15.3755L10.9729 6.40022ZM1.40979 10.4204C2.63094 10.5286 3.30619 9.53617 4.03036 8.47188C4.92612 7.15537 5.89673 5.72888 8.06794 6.1395C6.98285 6.09522 6.38068 7.1463 5.76667 8.21805C5.15404 9.28741 4.52961 10.3773 3.40192 10.4204C4.89825 10.6173 5.66779 9.5404 6.42312 8.48339C7.26604 7.30383 8.09125 6.14904 9.88905 6.8169C8.55857 6.90819 8.04962 8.02204 7.5344 9.14961C6.69646 10.9834 5.84193 12.8536 1.40979 10.4204ZM4.90179 9.74064C5.33175 9.43595 5.65923 8.87983 5.99646 8.30715C6.57644 7.32224 7.18527 6.28835 8.3938 6.40022C7.24777 6.77655 6.6243 7.71137 6.09667 8.50249C5.70394 9.09134 5.3643 9.60058 4.90179 9.74064ZM10.2357 10.8347C8.74046 10.8347 8.30598 8.14842 9.80124 7.22893C11.4314 6.36449 12.3772 7.12576 13.2599 7.83627C13.9151 8.36367 14.5356 8.86311 15.3755 8.64889L13.7924 9.98273V10.574C13.0824 10.7243 12.7545 9.98874 12.4126 9.22195C11.96 8.20677 11.483 7.13676 10.0624 7.99478C11.0608 7.90865 11.5576 7.99478 11.969 8.91427C11.5576 8.41146 10.5616 8.15074 10.1479 9.32861C11.8188 7.55947 12.8819 10.8347 10.2357 10.8347ZM26.1127 6.40022L22.1007 0.936829H23.4434L26.9354 5.80896L26.1127 6.40022ZM27.2636 5.54824L23.9426 0.936829L24.3563 1.02296L27.5224 5.3946L27.2636 5.54824ZM27.8483 5.04543L24.8531 1.02296H26.1127L28.6063 4.54262L27.8483 5.04543ZM32.6493 6.10152C32.6989 5.98612 32.7266 5.9216 32.7368 5.85443C32.7497 5.76927 32.7343 5.67984 32.6994 5.47701L32.6853 5.3946C33.4433 5.3946 34.5064 2.11704 34.5064 1.94245C34.1605 2.23042 33.8459 2.65201 33.5264 3.08003C32.9241 3.88718 32.3047 4.7172 31.4258 4.7172C30.937 4.44009 30.5904 4.53157 30.2403 4.62393C30.064 4.67046 29.8868 4.7172 29.6902 4.7172C29.0177 3.95135 28.4353 3.0342 28.1949 2.20316C28.3451 1.37213 29.778 0.78319 30.1039 1.11141C29.6828 2.63012 30.5374 2.1786 31.5381 1.64981C32.1357 1.33406 32.7855 0.990753 33.2469 1.02296C33.2428 1.02876 33.2333 1.04132 33.2194 1.05956C33.0222 1.31953 31.949 2.7339 33.2469 2.20316C34.0951 1.43731 34.9386 1.37213 36.2651 1.52577C36.0414 1.65875 35.8434 1.75657 35.67 1.84225C35.1876 2.08049 34.895 2.22502 34.7676 2.77115C34.7676 5.04543 34.7676 7.55947 32.5975 6.2233C32.6169 6.17692 32.6341 6.13684 32.6493 6.10152ZM31.7516 5.13389C32.3076 4.91814 32.7787 4.37251 33.203 3.88108C33.4243 3.62488 33.6327 3.38341 33.8339 3.21111C33.3555 4.36803 32.5975 5.63437 31.7516 5.13389ZM24.7676 6.72611C25.179 6.40022 26.1982 6.98683 25.937 7.73174C25.7013 7.22893 25.3523 6.87975 24.7676 6.72611ZM27.6726 7.99478C27.2439 7.92063 27.4493 8.32737 27.7359 8.89495C28.1152 9.64598 28.6366 10.6786 28.0193 11.2514C27.1195 10.5735 26.6309 10.5722 26.238 10.5712C25.6177 10.5695 25.2362 10.5685 23.8525 7.90631C23.3273 8.30871 23.6451 8.63482 24.0168 9.01629C24.4106 9.42043 24.865 9.88671 24.4418 10.5717C23.9981 10.2323 23.6131 9.97673 23.267 9.74702C22.7657 9.41431 22.346 9.13575 21.9481 8.73503C21.9481 6.98683 24.1806 6.48635 25.3523 7.64095C25.3693 7.66674 25.3974 7.71186 25.4349 7.77216C25.7796 8.32671 26.9224 10.1652 27.6102 10.0665C27.4953 9.8364 27.2903 9.59243 27.0753 9.33669C26.5162 8.67153 25.8901 7.9267 26.6095 7.13814C27.6027 6.19646 28.5572 7.68621 29.3787 8.96841C29.796 9.61965 30.1789 10.2173 30.5152 10.4157C30.6938 9.59663 29.1995 7.87869 28.442 7.00778C28.1898 6.71787 28.0193 6.52181 28.0193 6.48402C28.958 5.52798 29.8085 6.72555 30.6743 7.94489C31.7291 9.43024 32.8068 10.9479 34.0951 8.64424C32.8962 9.71736 32.4235 9.08309 31.7355 8.15975C31.0773 7.27646 30.2219 6.12865 28.3451 5.95793C29.0177 5.04077 31.6869 4.88714 32.0128 5.89276C31.6869 5.8043 31.1901 5.89275 30.9289 6.21865C30.9463 6.23619 31.0673 6.2602 31.2503 6.29654C31.966 6.43863 33.6312 6.76922 33.7692 7.63862C33.2446 7.46403 32.854 7.46403 32.5074 7.63862C33.2965 8.43214 34.0372 8.07998 34.7114 7.75943C35.2437 7.50637 35.7346 7.27302 36.175 7.63862C35.6709 7.90287 35.3514 8.51616 35.0301 9.13282C34.341 10.4555 33.6439 11.7936 31.0999 9.73599C30.795 9.84576 30.9894 10.045 31.2771 10.3399C31.624 10.6953 32.1063 11.1896 32.0128 11.8333C31.5992 11.4939 31.2319 11.4168 30.8561 11.3379C30.0307 11.1646 29.1637 10.9826 27.6726 7.99478ZM30.3627 20.8211V19.138C30.9289 19.6409 32.8563 20.8862 33.4433 20.6441C33.8448 20.5215 33.841 20.3977 33.8279 19.9811C33.8227 19.8126 33.8159 19.5962 33.8339 19.3126C33.7683 19.3295 33.6855 19.3593 33.5886 19.3941C32.8177 19.6709 31.154 20.2684 30.1686 17.2804L30.2772 14.2659C31.0144 14.3497 31.4258 14.5266 31.8603 14.7687C31.8603 15.1115 31.846 15.4226 31.8331 15.7028C31.7828 16.7982 31.7541 17.4225 32.6853 17.6319C33.6577 17.7674 33.6892 17.1156 33.7481 15.897C33.755 15.7544 33.7623 15.604 33.7715 15.4461L35.1789 16.1235V21.6521C35.3461 23.3361 33.9479 22.5929 32.3873 21.7634C31.7043 21.4004 30.9902 21.0209 30.3627 20.8211ZM10.2357 19.706L10.2981 13.258C11.1463 13.0834 13.6399 12.7552 14.4626 12.7552V13.8469L11.8835 14.2636L11.969 19.3103L11.9413 19.3141C11.4502 19.3811 10.8096 19.4684 10.2357 19.706ZM1.82116 23.8123V16.2748C2.31803 15.9466 2.99055 15.5346 3.66307 15.4461L5.39867 18.0463L6.89624 14.2659C6.98175 14.2007 7.98012 13.8492 8.74046 13.6095L8.80286 20.1437C8.69451 20.1767 8.57474 20.2109 8.4485 20.2469C7.99588 20.3762 7.45979 20.5293 7.06957 20.7349V16.4517L5.39636 21.1493L3.48974 18.1348V22.5693C2.99055 22.8067 2.31803 23.2443 1.82116 23.8123ZM16.6141 36.3709L12.9049 35.9799L12.8818 37.8142L9.1055 37.1601V35.349L5.48639 34.3038V36.1777C4.64055 36.0055 2.64611 35.1558 1.73555 34.39V27.7697C9.15173 34.6251 27.6101 34.4528 35.0956 27.9419V34.3667C34.8345 34.7997 31.9272 35.9589 31.428 36.1312V34.2759L27.6748 35.3909V37.2276L23.9448 37.9073V36.0497L20.3673 36.3733V38.1447H16.6141V36.3709Z"
          fill="#429C97"/>
    <path d="M12.9769 5.95329C12.9801 5.98326 12.9857 6.014 12.9925 6.04538C12.9866 6.01495 12.9814 5.98426 12.9769 5.95329Z"
          fill="#429C97"/>
</svg>
