<svg width="100" height="51" viewBox="0 0 100 51" fill="none" xmlns="http://www.w3.org/2000/svg">
<path d="M98.2545 50.9581C98.292 50.9505 98.3288 50.9404 98.3658 50.9308C98.3973 50.9226 98.4291 50.9159 98.46 50.9063C98.4962 50.8953 98.5315 50.8816 98.5667 50.8688C98.598 50.8575 98.6295 50.8473 98.6604 50.8342C98.6937 50.8202 98.7258 50.8039 98.7582 50.7885C98.7897 50.7734 98.8218 50.7594 98.8527 50.7425C98.8837 50.726 98.9129 50.7071 98.9429 50.689C98.9739 50.6704 99.0051 50.6529 99.0352 50.6326C99.0673 50.6111 99.0971 50.5872 99.128 50.5639C99.154 50.5444 99.1806 50.5261 99.2061 50.5052C99.2529 50.4665 99.2974 50.4252 99.3408 50.3827C99.3486 50.3751 99.357 50.3687 99.3648 50.3609C99.3729 50.3527 99.3798 50.3437 99.3877 50.3353C99.4293 50.2922 99.4698 50.248 99.5079 50.2015C99.5302 50.1741 99.5496 50.1456 99.5704 50.1174C99.5918 50.0883 99.6143 50.0601 99.6343 50.0298C99.6557 49.9975 99.6745 49.9641 99.6942 49.9309C99.7106 49.903 99.7283 49.8756 99.7436 49.8468C99.7615 49.8134 99.7766 49.7788 99.7925 49.7447C99.8066 49.7145 99.8217 49.6845 99.8347 49.6534C99.8486 49.6199 99.8596 49.5859 99.8717 49.5519C99.8836 49.5187 99.8963 49.4858 99.9064 49.4521C99.9168 49.4178 99.9243 49.3828 99.933 49.3479C99.9414 49.3136 99.9512 49.2799 99.9579 49.2452C99.966 49.2042 99.9709 49.1629 99.9767 49.1216C99.9807 49.0925 99.9862 49.0637 99.9891 49.0343C99.9963 48.9619 100 48.8895 100 48.8167V2.18181C100 0.976579 99.0294 0 97.8314 0H29.5185C29.4994 0 29.4809 0.00232567 29.4618 0.00290748C29.4205 0.00407112 29.3794 0.00581749 29.3384 0.00930839C29.3057 0.0119266 29.2733 0.0157091 29.2409 0.0200727C29.2039 0.0247273 29.1672 0.0302541 29.1305 0.036945C29.096 0.0430541 29.0619 0.0503262 29.0281 0.0581808C28.9937 0.0663262 28.9593 0.0750543 28.9252 0.0849452C28.8913 0.0945451 28.8581 0.105016 28.8251 0.116071C28.7913 0.127707 28.7574 0.139927 28.7242 0.153309C28.6927 0.165818 28.6617 0.178616 28.6311 0.19258C28.597 0.207998 28.5631 0.224582 28.5296 0.241745C28.501 0.256581 28.4729 0.271708 28.4452 0.287708C28.4116 0.306908 28.3787 0.327271 28.346 0.348217C28.3191 0.365671 28.2928 0.383707 28.2667 0.402034C28.2361 0.423852 28.2057 0.446543 28.176 0.470398C28.1488 0.492216 28.1222 0.514617 28.0959 0.537598C28.0698 0.56058 28.0441 0.583561 28.0189 0.607997C27.9903 0.635634 27.9628 0.664433 27.9357 0.693524C27.9221 0.708069 27.9076 0.72087 27.8946 0.735707C27.8868 0.744434 27.8807 0.754035 27.8732 0.762762C27.846 0.794471 27.8206 0.827634 27.7951 0.861088C27.7766 0.885525 27.7575 0.90996 27.7402 0.934978C27.7176 0.96756 27.6968 1.00102 27.676 1.03476C27.6589 1.0624 27.6413 1.08974 27.6257 1.11796C27.6075 1.15054 27.5916 1.184 27.5751 1.21745C27.5601 1.248 27.5444 1.27854 27.5308 1.30967C27.5167 1.34254 27.5042 1.37658 27.4918 1.41003C27.4794 1.44291 27.4667 1.47549 27.456 1.50865C27.4453 1.5421 27.4366 1.57614 27.4273 1.61018C27.4181 1.64509 27.4082 1.6797 27.4004 1.7149C27.3932 1.74778 27.3883 1.78123 27.3825 1.81439C27.3761 1.85221 27.3698 1.89003 27.3652 1.92785C27.3614 1.95927 27.3597 1.99127 27.3574 2.02327C27.3545 2.06399 27.3519 2.10472 27.3513 2.14574C27.351 2.15767 27.3495 2.1693 27.3495 2.18123V15.6363C27.3495 16.8416 28.3202 17.8181 29.5182 17.8181C30.7162 17.8181 31.6869 16.8416 31.6869 15.6363V7.02689L50.968 24.2012C50.8674 24.2725 50.7705 24.3514 50.6803 24.4418L31.6866 43.5507V29.2124C31.6866 28.0072 30.7159 27.0306 29.5179 27.0306C28.32 27.0306 27.3493 28.0072 27.3493 29.2124V31.8783H16.1445C14.9465 31.8783 13.9758 32.8549 13.9758 34.0601C13.9758 35.2654 14.9465 36.2419 16.1445 36.2419H27.3493V48.8182C27.3493 50.0234 28.32 51 29.5179 51H97.8308C97.9023 51 97.9737 50.9962 98.0448 50.9892C98.0781 50.986 98.1102 50.9796 98.1428 50.975C98.1804 50.9697 98.2174 50.9654 98.2545 50.9581ZM95.6625 43.551L76.6684 24.4421C76.6563 24.4299 76.6433 24.4197 76.6308 24.4081L90.9102 12.2199C91.8233 11.4403 91.9355 10.0637 91.1606 9.1447C90.3863 8.2263 89.018 8.11285 88.104 8.89278L63.7047 29.7189L35.2391 4.36391H95.6625V43.551ZM53.7477 27.5281C53.9024 27.3724 54.0279 27.1991 54.1259 27.0146L62.237 34.2393C62.647 34.6044 63.1606 34.7877 63.6747 34.7877C64.1738 34.7877 64.6725 34.6152 65.0779 34.2696L73.344 27.2139C73.4192 27.3244 73.5039 27.43 73.6014 27.5281L92.5951 46.637H34.7539L53.7477 27.5281Z" fill="#429C97"/>
<path d="M2.16866 24.848H38.7951C39.9931 24.848 40.9638 23.8714 40.9638 22.6662C40.9638 21.461 39.9931 20.4844 38.7951 20.4844H2.16866C0.970694 20.4844 0 21.461 0 22.6662C0 23.8714 0.970694 24.848 2.16866 24.848Z" fill="#429C97"/>
<path d="M5.96383 12.8246H22.4095C23.6075 12.8246 24.5782 11.848 24.5782 10.6427C24.5782 9.43752 23.6075 8.46094 22.4095 8.46094H5.96383C4.76586 8.46094 3.79517 9.43752 3.79517 10.6427C3.79517 11.848 4.76586 12.8246 5.96383 12.8246Z" fill="#429C97"/>
<path d="M18.0722 41.0908H2.16866C0.970694 41.0908 0 42.0674 0 43.2726C0 44.4779 0.970694 45.4544 2.16866 45.4544H18.0722C19.2702 45.4544 20.2409 44.4779 20.2409 43.2726C20.2409 42.0674 19.2702 41.0908 18.0722 41.0908Z" fill="#429C97"/>
</svg>
